# xmcd CD database file generated by OrangeCD 4.3
#
# Track frame offsets:
#	150
#	10874
#	21948
#	31425
#	42038
#	50074
#	60311
#	70255
#	80699
#	90808
#	100525
#	110167
#	118986
#	129827
#	140532
#	151691
#	163378
#	176141
#	188009
#	199066
#	210418
#	220501
#	230530
#	242016
#
# Disc length: 3442 seconds
#
# Revision: 0
# Processed by: cddbd v1.4PL0 Copyright (c) Steve Scherf et al.
# Submitted via: OrangeCD 4.3
#
DISCID=410d7018
DTITLE=Various Artist - When Blues Goes Boppin and Jivin' Vol. 2
DYEAR=1900
DGENRE=Blues
TTITLE0=Linda Hopkins - The Magic Song
TTITLE1=Lilian Briggs - Blues In The Night
TTITLE2=Dottie Evans - Lucky Lips
TTITLE3=Georgie Auld - Plantation Boogie
TTITLE4=Connie Boswell - You Ain't Got Nothin'
TTITLE5=Big Maybelle - Ring Ding Dilly
TTITLE6=Bob and Lucille - Eeny Meeny Miney Moe
TTITLE7=Neal and The Newcomers - Reeling and Rocking
TTITLE8=Vernon Green - 59 Volvo
TTITLE9=Rod Bernard - My Old Mother In Law
TTITLE10=Billy Lamont - Tom Cat
TTITLE11=King Perry - Big Fat Mama
TTITLE12=Lula Reed - Bump On A Log
TTITLE13=Annie Laurie - Nobody's Gonna Hurt You
TTITLE14=Bud Harper - Let Me Love You
TTITLE15=Bobby Bland - Call On Me
TTITLE16=Chuck Willis - Watcha Gonna Do When Your Baby Leaves You
TTITLE17=Memphis Slim - Not So Stuck On Me
TTITLE18=Annie Laurie - Love Is A Funny Thing
TTITLE19=Johnny Taylor - Somewhere Down The Line
TTITLE20=Big Maybelle - Going Home Baby
TTITLE21=Spencer Wiggins - Lonely Man
TTITLE22=Barbara Pittman - Handsome Man
TTITLE23=Lou Rawls - Two Tickets West
EXTD=
EXTT0=
EXTT1=
EXTT2=
EXTT3=
EXTT4=
EXTT5=
EXTT6=
EXTT7=
EXTT8=
EXTT9=
EXTT10=
EXTT11=
EXTT12=
EXTT13=
EXTT14=
EXTT15=
EXTT16=
EXTT17=
EXTT18=
EXTT19=
EXTT20=
EXTT21=
EXTT22=
EXTT23=
PLAYORDER=
